<svg xmlns="http://www.w3.org/2000/svg" viewBox="0 0 244.49 187.5862">
  <defs>
    <style>
      .cls-1 {
        fill: #2e2e2e;
      }
    </style>
  </defs>
  <title>Ресурс 1</title>
  <g id="Слой_2" data-name="Слой 2">
    <g id="Layer_1" data-name="Layer 1">
      <g>
        <path class="cls-1" d="M67.5685,170.7005q0,5.0244-2.9008,7.5966-2.9011,2.5738-8.5225,2.5733H50.8845v-19.957h5.937q5.261,0,8.0039,2.498T67.5685,170.7005Zm-1.6684.0547q0-4.2863-2.3975-6.45t-7.0415-2.1631H52.4177v17.5h3.6372Q65.9,179.6419,65.9,170.7552Z"/>
        <path class="cls-1" d="M70.382,178.2063a2.5877,2.5877,0,0,1,.5381-1.6172,5.7588,5.7588,0,0,1,1.9312-1.42,8.55,8.55,0,0,1-.8941-1.0117,3.3351,3.3351,0,0,1-.3755-.7168,2.1992,2.1992,0,0,1-.1391-.7734,1.9664,1.9664,0,0,1,.7583-1.6446,3.3592,3.3592,0,0,1,2.1132-.5908,3.0339,3.0339,0,0,1,1.9737.5869,1.9921,1.9921,0,0,1,.72,1.6338,2.13,2.13,0,0,1-.5264,1.3887,5.8822,5.8822,0,0,1-1.7412,1.29l3.15,2.7481a3.3474,3.3474,0,0,0,.6929-1.0225,8.2584,8.2584,0,0,0,.4375-1.2832h1.3a6.4806,6.4806,0,0,1-1.5869,3.0508L81.048,180.87H79.2756l-1.4322-1.251a6.08,6.08,0,0,1-1.8574,1.0684,6.4662,6.4662,0,0,1-2.1054.3232,3.9892,3.9892,0,0,1-2.5811-.7451A2.508,2.508,0,0,1,70.382,178.2063Zm3.53,1.7569a4.5157,4.5157,0,0,0,3.0957-1.0821l-3.3823-2.98a7.4474,7.4474,0,0,0-1.2153.791,2.0972,2.0972,0,0,0-.5264.6709,1.8815,1.8815,0,0,0-.17.8154,1.5815,1.5815,0,0,0,.6,1.3037A2.4771,2.4771,0,0,0,73.9118,179.9632Zm-1.2-7.3243a1.703,1.703,0,0,0,.2783.9249,5.7551,5.7551,0,0,0,.9522,1.0576,4.9908,4.9908,0,0,0,1.3891-.9737,1.5156,1.5156,0,0,0,.3911-1.0293,1.107,1.107,0,0,0-.3989-.8828,1.5794,1.5794,0,0,0-1.064-.3408,1.7547,1.7547,0,0,0-1.1186.3379A1.092,1.092,0,0,0,72.7121,172.6389Z"/>
        <path class="cls-1" d="M96.674,173.8264H87.7458l-3.0664,7.044H82.9811l8.8379-20.0391h.9771l8.6577,20.0391H99.7253Zm-8.3721-1.2558h7.8614l-2.9912-7.1934q-.3758-.8466-.9019-2.3486a20.6008,20.6008,0,0,1-.8867,2.376Z"/>
        <path class="cls-1" d="M125.402,177.0071a3.43,3.43,0,0,1-1.6689,3.0645,8.7516,8.7516,0,0,1-4.7339,1.0722,12.2792,12.2792,0,0,1-5.2007-.915v-1.4609a12.4216,12.4216,0,0,0,5.2007,1.12,7.44,7.44,0,0,0,3.6753-.7305,2.195,2.195,0,0,0,1.2549-1.9453,2.2949,2.2949,0,0,0-1-1.8838,11.4228,11.4228,0,0,0-3.2842-1.502,19.7377,19.7377,0,0,1-3.4419-1.3857,4.5756,4.5756,0,0,1-1.4956-1.31,3.0579,3.0579,0,0,1-.5034-1.7813,2.9783,2.9783,0,0,1,1.54-2.6348,8.0844,8.0844,0,0,1,4.3067-.9687,14.0312,14.0312,0,0,1,5.0195.9014l-.5557,1.2285a12.792,12.792,0,0,0-4.4638-.9014,7.0165,7.0165,0,0,0-3.1719.6006,1.8385,1.8385,0,0,0-1.1724,1.665,2.2221,2.2221,0,0,0,.91,1.8575,13.2355,13.2355,0,0,0,3.5547,1.5556,18.3767,18.3767,0,0,1,3.2158,1.3037,4.51,4.51,0,0,1,1.5117,1.3174A3.0023,3.0023,0,0,1,125.402,177.0071Z"/>
        <path class="cls-1" d="M138.2341,179.9417a12.2728,12.2728,0,0,0,2.4658-.2178v1.0918a8.6273,8.6273,0,0,1-2.4961.3281,4.2958,4.2958,0,0,1-3.1934-1.0517,4.567,4.567,0,0,1-1.0293-3.3037v-9.5821h-2.42v-.792l2.42-.6142.751-3.3584h.7666v3.5908h4.7949v1.1738h-4.7949v9.3916a3.9862,3.9862,0,0,0,.6612,2.5254A2.5074,2.5074,0,0,0,138.2341,179.9417Z"/>
        <path class="cls-1" d="M145.8054,166.0325h1.5332l3.457,8.3262q1.579,3.8364,1.999,5.1738h.0908q.63-1.7607,2.0586-5.2559l3.4571-8.2441h1.5332l-7.32,17.24a12.9486,12.9486,0,0,1-1.4883,2.84,3.908,3.908,0,0,1-1.4043,1.1054,4.6506,4.6506,0,0,1-1.9473.3682,7.3526,7.3526,0,0,1-1.9082-.2861v-1.1738a7.7114,7.7114,0,0,0,1.8789.2177,2.7294,2.7294,0,0,0,1.3516-.3271,3.2168,3.2168,0,0,0,1.0605-1.0176,12.8357,12.8357,0,0,0,1.0977-2.1836q.6225-1.4956.8037-1.9453Z"/>
        <rect class="cls-1" x="166.9802" y="159.6297" width="1.4873" height="21.2407"/>
        <path class="cls-1" d="M184.8464,181.1438a6.9166,6.9166,0,0,1-7.5449-7.5761,8.1711,8.1711,0,0,1,1.9238-5.6856,6.6316,6.6316,0,0,1,5.1855-2.1367,5.8571,5.8571,0,0,1,4.5547,1.8291,7.0933,7.0933,0,0,1,1.668,4.9687v1.0918H178.8649a6.6009,6.6009,0,0,0,1.57,4.669,5.8162,5.8162,0,0,0,4.4112,1.6113,15.0531,15.0531,0,0,0,2.458-.1777,16.0331,16.0331,0,0,0,2.6826-.7647v1.2285a12.8277,12.8277,0,0,1-2.5547.7442A15.5961,15.5961,0,0,1,184.8464,181.1438Zm-.4356-14.1972a5.1461,5.1461,0,0,0-3.7871,1.413,6.3165,6.3165,0,0,0-1.6689,4.0743h10.1006a6.0424,6.0424,0,0,0-1.2325-4.0332A4.2318,4.2318,0,0,0,184.4108,166.9466Z"/>
        <path class="cls-1" d="M114.93,18.3C102.13,7.59,88.03,1.57,72.51.29V2.46Q89.52,5.055,99.08,21.48q10.545,18.12,10.57,50.48,0,34.14-10.44,51.2c-5.93,9.62-14.83,15.2-26.7,16.62v2.36q26.58-1.815,45.3-18.27,22.305-19.65,22.31-51.91Q140.12,39.29,114.93,18.3ZM0,0V2.09c9.42.33,16.12,1.16,20.06,2.55,1.75.6,2.81,1.16,3.13,1.75.62,1.2.94,3.86.94,7.98V127.8c0,4.42-.32,7.15-.94,8.2-.32.6-1.46,1.19-3.37,1.86-1.91.68-5.45,1.25-10.56,1.69-2.77.23-5.85.42-9.26.52v2.32H53.63V0Z"/>
        <line class="cls-1" x1="166.9718" y1="62.7567" x2="166.6874" y2="62.7567"/>
        <path class="cls-1" d="M244.49,140.11v2.28H173.01v-2.31a104.1121,104.1121,0,0,0,14.6-1.09c4.47-.82,6.7-2.47,6.7-5.02l-.44-2.2L178.63,92.73h-.16L166.69,62.76,153.77,29.71,167.23.29h4.44L222.63,127.8c2.39,6.06,4.8,9.66,7.2,10.74C231.73,139.44,236.61,139.93,244.49,140.11Z"/>
      </g>
    </g>
  </g>
</svg>
