<?xml version="1.0" encoding="iso-8859-1"?><svg viewBox="0 0 640 640" xmlns="http://www.w3.org/2000/svg" xmlns:xlink="http://www.w3.org/1999/xlink"><style>:root>svg{display:none}:root>svg:target{display:block}</style><svg viewBox="0 0 443.52 443.52" id="back-arrow-icon" xmlns="http://www.w3.org/2000/svg"><path d="M143.492 221.863L336.226 29.129c6.663-6.664 6.663-17.468 0-24.132-6.665-6.662-17.468-6.662-24.132 0l-204.8 204.8c-6.662 6.664-6.662 17.468 0 24.132l204.8 204.8c6.78 6.548 17.584 6.36 24.132-.42 6.387-6.614 6.387-17.099 0-23.712L143.492 221.863z"/></svg><svg fill="#F0F0F0" viewBox="0 0 480 480" id="date_icon" xmlns="http://www.w3.org/2000/svg"><path d="M399.832 54.398c-.062-.277-.23-.496-.312-.757a7.369 7.369 0 00-.536-1.297 7.668 7.668 0 00-.894-1.336 8.164 8.164 0 00-.914-.961 7.263 7.263 0 00-1.313-.879 8 8 0 00-1.246-.61 7.986 7.986 0 00-1.601-.328A8.133 8.133 0 00392 48h-40.336C349.602 20.152 336.68 0 320 0s-29.602 20.152-31.664 48h-16.672C269.602 20.152 256.68 0 240 0s-29.602 20.152-31.664 48h-16.672C189.602 20.152 176.68 0 160 0s-29.602 20.152-31.664 48h-16.672C109.602 20.152 96.68 0 80 0S50.398 20.152 48.336 48H8a8 8 0 00-8 8v416a8 8 0 008 8h384a8 8 0 008-8v-24h72a8 8 0 007.832-9.602zM320 16c5.777 0 13.84 12.258 15.617 32h-31.203c1.746-19.742 9.809-32 15.586-32zm-80 0c5.777 0 13.84 12.258 15.617 32h-31.203c1.746-19.742 9.809-32 15.586-32zm-80 0c5.777 0 13.84 12.258 15.617 32h-31.203c1.746-19.742 9.809-32 15.586-32zm-80 0c5.777 0 13.84 12.258 15.617 32H64.414C66.16 28.258 74.223 16 80 16zM16 64h32.336C50.398 91.848 63.32 112 80 112a8 8 0 000-16c-5.777 0-13.84-12.258-15.617-32h63.953c2.09 27.848 14.984 48 31.664 48a8 8 0 000-16c-5.777 0-13.84-12.258-15.617-32h63.953c2.09 27.848 14.984 48 31.664 48a8 8 0 000-16c-5.777 0-13.84-12.258-15.617-32h63.953c2.09 27.848 14.984 48 31.664 48a8 8 0 000-16c-5.777 0-13.84-12.258-15.617-32H384v80H16zm368 400H16V160h368zm16-32V133.602L462.168 432zm0 0"/><path d="M176 288h-32a8 8 0 00-8 8v32a8 8 0 008 8h32a8 8 0 008-8v-32a8 8 0 00-8-8zm-8 32h-16v-16h16zm0 0M256 288h-32a8 8 0 00-8 8v32a8 8 0 008 8h32a8 8 0 008-8v-32a8 8 0 00-8-8zm-8 32h-16v-16h16zm0 0M96 288H64a8 8 0 00-8 8v32a8 8 0 008 8h32a8 8 0 008-8v-32a8 8 0 00-8-8zm-8 32H72v-16h16zm0 0M176 368h-32a8 8 0 00-8 8v32a8 8 0 008 8h32a8 8 0 008-8v-32a8 8 0 00-8-8zm-8 32h-16v-16h16zm0 0M256 368h-32a8 8 0 00-8 8v32a8 8 0 008 8h32a8 8 0 008-8v-32a8 8 0 00-8-8zm-8 32h-16v-16h16zm0 0M96 368H64a8 8 0 00-8 8v32a8 8 0 008 8h32a8 8 0 008-8v-32a8 8 0 00-8-8zm-8 32H72v-16h16zm0 0M176 208h-32a8 8 0 00-8 8v32a8 8 0 008 8h32a8 8 0 008-8v-32a8 8 0 00-8-8zm-8 32h-16v-16h16zm0 0M256 208h-32a8 8 0 00-8 8v32a8 8 0 008 8h32a8 8 0 008-8v-32a8 8 0 00-8-8zm-8 32h-16v-16h16zm0 0M336 288h-32a8 8 0 00-8 8v32a8 8 0 008 8h32a8 8 0 008-8v-32a8 8 0 00-8-8zm-8 32h-16v-16h16zm0 0M336 368h-32a8 8 0 00-8 8v32a8 8 0 008 8h32a8 8 0 008-8v-32a8 8 0 00-8-8zm-8 32h-16v-16h16zm0 0M336 208h-32a8 8 0 00-8 8v32a8 8 0 008 8h32a8 8 0 008-8v-32a8 8 0 00-8-8zm-8 32h-16v-16h16zm0 0M96 208H64a8 8 0 00-8 8v32a8 8 0 008 8h32a8 8 0 008-8v-32a8 8 0 00-8-8zm-8 32H72v-16h16zm0 0"/></svg><svg fill="#fff" viewBox="0 0 512 512" id="img_hover" xmlns="http://www.w3.org/2000/svg"><path d="M310 190c-5.52 0-10 4.48-10 10s4.48 10 10 10 10-4.48 10-10-4.48-10-10-10z"/><path d="M500.281 443.719l-133.48-133.48C388.546 277.485 400 239.555 400 200 400 89.72 310.28 0 200 0S0 89.72 0 200s89.72 200 200 200c39.556 0 77.486-11.455 110.239-33.198l36.895 36.895.016.016 96.568 96.568C451.276 507.838 461.319 512 472 512c10.681 0 20.724-4.162 28.278-11.716C507.837 492.731 512 482.687 512 472s-4.163-20.731-11.719-28.281zm-194.745-97.992l-.002.002C274.667 368.149 238.175 380 200 380c-99.252 0-180-80.748-180-180S100.748 20 200 20s180 80.748 180 180c0 38.175-11.851 74.667-34.272 105.535a180.872 180.872 0 01-40.192 40.192zm20.98 9.066a200.674 200.674 0 0028.277-28.277l28.371 28.371a242.733 242.733 0 01-28.277 28.277l-28.371-28.371zm159.623 131.346c-3.78 3.78-8.801 5.861-14.139 5.861s-10.359-2.081-14.139-5.861l-88.795-88.795a262.775 262.775 0 0028.277-28.277l88.798 88.798A19.846 19.846 0 01492 472a19.856 19.856 0 01-5.861 14.139z"/><path d="M200 40c-88.225 0-160 71.775-160 160s71.775 160 160 160 160-71.775 160-160S288.225 40 200 40zm0 300c-77.196 0-140-62.804-140-140S122.804 60 200 60s140 62.804 140 140-62.804 140-140 140z"/><path d="M312.065 157.073c-8.611-22.412-23.604-41.574-43.36-55.413C248.479 87.49 224.721 80 200 80c-5.522 0-10 4.478-10 10s4.478 10 10 10c41.099 0 78.631 25.818 93.396 64.247a10.003 10.003 0 009.337 6.416 9.978 9.978 0 003.584-.668c5.155-1.981 7.729-7.766 5.748-12.922z"/></svg><svg viewBox="0 0 244.49 187.586" id="logo_footer" xmlns="http://www.w3.org/2000/svg"><defs><style>.dcls-1{fill:#fff}</style></defs><g id="dСлой_2" data-name="Слой 2"><g id="dLayer_1" data-name="Layer 1"><path class="dcls-1" d="M67.569 170.7q0 5.025-2.901 7.597-2.901 2.574-8.523 2.574h-5.26v-19.957h5.937q5.26 0 8.003 2.498t2.743 7.289zm-1.669.055q0-4.286-2.397-6.45t-7.042-2.163h-4.043v17.5h3.637q9.845 0 9.845-8.887zM70.382 178.207a2.588 2.588 0 01.538-1.618 5.759 5.759 0 011.931-1.42 8.55 8.55 0 01-.894-1.011 3.337 3.337 0 01-.375-.717 2.2 2.2 0 01-.14-.774 1.966 1.966 0 01.759-1.644 3.36 3.36 0 012.113-.591 3.034 3.034 0 011.974.587 1.992 1.992 0 01.72 1.634 2.13 2.13 0 01-.527 1.388 5.882 5.882 0 01-1.74 1.29l3.15 2.749a3.347 3.347 0 00.692-1.023 8.258 8.258 0 00.438-1.283h1.3a6.48 6.48 0 01-1.587 3.05l2.314 2.047h-1.772l-1.433-1.251a6.08 6.08 0 01-1.857 1.068 6.466 6.466 0 01-2.105.323 3.99 3.99 0 01-2.581-.745 2.508 2.508 0 01-.918-2.06zm3.53 1.756a4.516 4.516 0 003.096-1.082l-3.383-2.98a7.447 7.447 0 00-1.215.791 2.097 2.097 0 00-.526.671 1.881 1.881 0 00-.17.816 1.581 1.581 0 00.6 1.303 2.477 2.477 0 001.598.481zm-1.2-7.324a1.702 1.702 0 00.278.925 5.752 5.752 0 00.953 1.058 4.99 4.99 0 001.389-.974 1.516 1.516 0 00.39-1.03 1.107 1.107 0 00-.398-.882 1.58 1.58 0 00-1.064-.341 1.755 1.755 0 00-1.119.338 1.092 1.092 0 00-.429.906zM96.674 173.827h-8.928l-3.067 7.044h-1.698l8.838-20.04h.977l8.658 20.04h-1.729zm-8.372-1.256h7.861l-2.99-7.194q-.377-.846-.903-2.348a20.6 20.6 0 01-.886 2.376zM125.402 177.007a3.43 3.43 0 01-1.669 3.065 8.752 8.752 0 01-4.734 1.072 12.28 12.28 0 01-5.2-.915v-1.46a12.422 12.422 0 005.2 1.12 7.44 7.44 0 003.676-.731 2.195 2.195 0 001.254-1.946 2.295 2.295 0 00-1-1.883 11.423 11.423 0 00-3.284-1.503 19.738 19.738 0 01-3.442-1.385 4.576 4.576 0 01-1.495-1.31 3.058 3.058 0 01-.504-1.782 2.978 2.978 0 011.54-2.634 8.084 8.084 0 014.307-.969 14.031 14.031 0 015.02.901l-.556 1.229a12.792 12.792 0 00-4.464-.902 7.016 7.016 0 00-3.172.601 1.839 1.839 0 00-1.172 1.665 2.222 2.222 0 00.91 1.858 13.236 13.236 0 003.554 1.555 18.377 18.377 0 013.216 1.304 4.51 4.51 0 011.512 1.317 3.002 3.002 0 01.503 1.733zM138.234 179.942a12.273 12.273 0 002.466-.218v1.092a8.627 8.627 0 01-2.496.328 4.296 4.296 0 01-3.194-1.052 4.567 4.567 0 01-1.029-3.303v-9.582h-2.42v-.792l2.42-.615.751-3.358h.767v3.59h4.795v1.174h-4.795v9.392a3.986 3.986 0 00.66 2.526 2.507 2.507 0 002.075.818zM145.805 166.033h1.534l3.457 8.326q1.579 3.836 1.999 5.174h.09q.63-1.761 2.059-5.256l3.457-8.244h1.533l-7.32 17.24a12.949 12.949 0 01-1.488 2.84 3.908 3.908 0 01-1.404 1.105 4.65 4.65 0 01-1.948.368 7.353 7.353 0 01-1.908-.286v-1.174a7.706 7.706 0 001.88.218 2.73 2.73 0 001.35-.327 3.217 3.217 0 001.06-1.017 12.836 12.836 0 001.099-2.184q.622-1.495.803-1.945zM166.98 159.63h1.487v21.241h-1.487zM184.846 181.144a6.917 6.917 0 01-7.545-7.576 8.171 8.171 0 011.924-5.686 6.632 6.632 0 015.186-2.136 5.857 5.857 0 014.554 1.829 7.093 7.093 0 011.668 4.968v1.092h-11.768a6.6 6.6 0 001.57 4.67 5.816 5.816 0 004.411 1.61 15.053 15.053 0 002.458-.177 16.033 16.033 0 002.683-.765v1.229a12.834 12.834 0 01-2.555.744 15.596 15.596 0 01-2.586.198zm-.435-14.197a5.146 5.146 0 00-3.787 1.413 6.316 6.316 0 00-1.67 4.074h10.101a6.042 6.042 0 00-1.232-4.033 4.232 4.232 0 00-3.412-1.454zM114.93 18.3C102.13 7.59 88.03 1.57 72.51.29v2.17q17.01 2.595 26.57 19.02 10.545 18.12 10.57 50.48 0 34.14-10.44 51.2c-5.93 9.62-14.83 15.2-26.7 16.62v2.36q26.58-1.815 45.3-18.27 22.305-19.65 22.31-51.91 0-32.67-25.19-53.66zM0 0v2.09c9.42.33 16.12 1.16 20.06 2.55 1.75.6 2.81 1.16 3.13 1.75.62 1.2.94 3.86.94 7.98V127.8c0 4.42-.32 7.15-.94 8.2-.32.6-1.46 1.19-3.37 1.86-1.91.68-5.45 1.25-10.56 1.69-2.77.23-5.85.42-9.26.52v2.32h53.63V0zM166.972 62.757h-.285M244.49 140.11v2.28h-71.48v-2.31a104.112 104.112 0 0014.6-1.09c4.47-.82 6.7-2.47 6.7-5.02l-.44-2.2-15.24-39.04h-.16l-11.78-29.97-12.92-33.05L167.23.29h4.44l50.96 127.51c2.39 6.06 4.8 9.66 7.2 10.74 1.9.9 6.78 1.39 14.66 1.57z"/></g></g></svg><svg viewBox="0 0 244.49 187.586" id="logo_main" xmlns="http://www.w3.org/2000/svg"><defs><style>.ecls-1{fill:#2e2e2e}</style></defs><g id="eСлой_2" data-name="Слой 2"><g id="eLayer_1" data-name="Layer 1"><path class="ecls-1" d="M67.569 170.7q0 5.025-2.901 7.597-2.901 2.574-8.523 2.573h-5.26v-19.957h5.937q5.26 0 8.003 2.498t2.743 7.29zm-1.669.055q0-4.286-2.397-6.45t-7.042-2.163h-4.043v17.5h3.637q9.845 0 9.845-8.887zM70.382 178.206a2.588 2.588 0 01.538-1.617 5.759 5.759 0 011.931-1.42 8.55 8.55 0 01-.894-1.012 3.335 3.335 0 01-.375-.716 2.2 2.2 0 01-.14-.774 1.966 1.966 0 01.759-1.644 3.36 3.36 0 012.113-.591 3.034 3.034 0 011.974.587 1.992 1.992 0 01.72 1.634 2.13 2.13 0 01-.527 1.388 5.882 5.882 0 01-1.74 1.29l3.15 2.748a3.347 3.347 0 00.692-1.022 8.258 8.258 0 00.438-1.283h1.3a6.48 6.48 0 01-1.587 3.05l2.314 2.046h-1.772l-1.433-1.251a6.08 6.08 0 01-1.857 1.068 6.466 6.466 0 01-2.105.324 3.99 3.99 0 01-2.581-.745 2.508 2.508 0 01-.918-2.06zm3.53 1.757a4.516 4.516 0 003.096-1.082l-3.383-2.98a7.447 7.447 0 00-1.215.791 2.097 2.097 0 00-.526.671 1.881 1.881 0 00-.17.815 1.581 1.581 0 00.6 1.304 2.477 2.477 0 001.598.481zm-1.2-7.324a1.703 1.703 0 00.278.925 5.755 5.755 0 00.953 1.057 4.99 4.99 0 001.389-.973 1.516 1.516 0 00.39-1.03 1.107 1.107 0 00-.398-.882 1.58 1.58 0 00-1.064-.341 1.755 1.755 0 00-1.119.338 1.092 1.092 0 00-.429.906zM96.674 173.826h-8.928l-3.067 7.044h-1.698l8.838-20.039h.977l8.658 20.04h-1.729zm-8.372-1.255h7.861l-2.99-7.194q-.377-.846-.903-2.348a20.6 20.6 0 01-.886 2.376zM125.402 177.007a3.43 3.43 0 01-1.669 3.065 8.752 8.752 0 01-4.734 1.072 12.28 12.28 0 01-5.2-.915v-1.461a12.422 12.422 0 005.2 1.12 7.44 7.44 0 003.676-.73 2.195 2.195 0 001.254-1.946 2.295 2.295 0 00-1-1.884 11.423 11.423 0 00-3.284-1.502 19.738 19.738 0 01-3.442-1.385 4.576 4.576 0 01-1.495-1.31 3.058 3.058 0 01-.504-1.782 2.978 2.978 0 011.54-2.634 8.084 8.084 0 014.307-.97 14.031 14.031 0 015.02.902l-.556 1.229a12.792 12.792 0 00-4.464-.902 7.016 7.016 0 00-3.172.6 1.839 1.839 0 00-1.172 1.666 2.222 2.222 0 00.91 1.857 13.236 13.236 0 003.554 1.556 18.377 18.377 0 013.216 1.304 4.51 4.51 0 011.512 1.317 3.002 3.002 0 01.503 1.733zM138.234 179.942a12.273 12.273 0 002.466-.218v1.092a8.627 8.627 0 01-2.496.328 4.296 4.296 0 01-3.194-1.052 4.567 4.567 0 01-1.029-3.304v-9.582h-2.42v-.792l2.42-.614.751-3.358h.767v3.59h4.795v1.174h-4.795v9.392a3.986 3.986 0 00.66 2.525 2.507 2.507 0 002.075.819zM145.805 166.032h1.534l3.457 8.327q1.579 3.836 1.999 5.173h.09q.63-1.76 2.059-5.255l3.457-8.244h1.533l-7.32 17.24a12.949 12.949 0 01-1.488 2.84 3.908 3.908 0 01-1.404 1.105 4.65 4.65 0 01-1.948.368 7.353 7.353 0 01-1.908-.286v-1.174a7.711 7.711 0 001.88.218 2.73 2.73 0 001.35-.327 3.217 3.217 0 001.061-1.018 12.836 12.836 0 001.098-2.183q.622-1.496.804-1.946zM166.98 159.63h1.487v21.241h-1.487zM184.846 181.144a6.917 6.917 0 01-7.545-7.576 8.171 8.171 0 011.924-5.686 6.632 6.632 0 015.186-2.137 5.857 5.857 0 014.554 1.83 7.093 7.093 0 011.668 4.968v1.092h-11.768a6.6 6.6 0 001.57 4.669 5.816 5.816 0 004.411 1.611 15.053 15.053 0 002.458-.177 16.033 16.033 0 002.683-.765v1.228a12.828 12.828 0 01-2.555.745 15.596 15.596 0 01-2.586.198zm-.435-14.197a5.146 5.146 0 00-3.787 1.413 6.316 6.316 0 00-1.67 4.074h10.101a6.042 6.042 0 00-1.232-4.033 4.232 4.232 0 00-3.412-1.454zM114.93 18.3C102.13 7.59 88.03 1.57 72.51.29v2.17q17.01 2.595 26.57 19.02 10.545 18.12 10.57 50.48 0 34.14-10.44 51.2c-5.93 9.62-14.83 15.2-26.7 16.62v2.36q26.58-1.815 45.3-18.27 22.305-19.65 22.31-51.91 0-32.67-25.19-53.66zM0 0v2.09c9.42.33 16.12 1.16 20.06 2.55 1.75.6 2.81 1.16 3.13 1.75.62 1.2.94 3.86.94 7.98V127.8c0 4.42-.32 7.15-.94 8.2-.32.6-1.46 1.19-3.37 1.86-1.91.68-5.45 1.25-10.56 1.69-2.77.23-5.85.42-9.26.52v2.32h53.63V0zM166.972 62.757h-.285M244.49 140.11v2.28h-71.48v-2.31a104.112 104.112 0 0014.6-1.09c4.47-.82 6.7-2.47 6.7-5.02l-.44-2.2-15.24-39.04h-.16l-11.78-29.97-12.92-33.05L167.23.29h4.44l50.96 127.51c2.39 6.06 4.8 9.66 7.2 10.74 1.9.9 6.78 1.39 14.66 1.57z"/></g></g></svg><svg viewBox="0 0 512.002 512.002" id="next-arrow-icon" xmlns="http://www.w3.org/2000/svg"><path d="M388.425 241.951L151.609 5.79c-7.759-7.733-20.321-7.72-28.067.04-7.74 7.759-7.72 20.328.04 28.067l222.72 222.105-222.728 222.104c-7.759 7.74-7.779 20.301-.04 28.061a19.8 19.8 0 0014.057 5.835 19.79 19.79 0 0014.017-5.795l236.817-236.155c3.737-3.718 5.834-8.778 5.834-14.05s-2.103-10.326-5.834-14.051z"/></svg><svg aria-hidden="true" data-prefix="fas" data-icon="search" class="g_icon" viewBox="0 0 512 512" fill="#fff" id="search_icon" xmlns="http://www.w3.org/2000/svg"><path d="M505 442.7L405.3 343c-4.5-4.5-10.6-7-17-7H372c27.6-35.3 44-79.7 44-128C416 93.1 322.9 0 208 0S0 93.1 0 208s93.1 208 208 208c48.3 0 92.7-16.4 128-44v16.3c0 6.4 2.5 12.5 7 17l99.7 99.7c9.4 9.4 24.6 9.4 33.9 0l28.3-28.3c9.4-9.4 9.4-24.6.1-34zM208 336c-70.7 0-128-57.2-128-128 0-70.7 57.2-128 128-128 70.7 0 128 57.2 128 128 0 70.7-57.2 128-128 128z"/></svg></svg>